<svg xmlns="http://www.w3.org/2000/svg" viewBox="0 0 68.5 80.1"><path d="M64.7 46.5c-2.6-2.6-4.8-4.2-7.5-5.3-1.2-7.4-6.5-16.4-13-26.7-11.7-18.6-27.4-15.7-33-11-4 3.3-6.7 6.9-6.5 10.7-2.2-1-5.2 0-4.6 3.6.5 2.9 5 3 6.3.9 1.4 2.1 2.5 2.8 5.6 3 .4 0 .8-.1 1.3-.3l-.1.1c-.1.2.9 2.6 1.3 2.6.5 0 3-1.3 3.1-1.5.1-.2-.8-2.7-1.1-2.7.7-.4 1.5-.8 2.2-1.2-.1.2.9 2.6 1.3 2.6.5 0 3-1.3 3.1-1.5.1-.2-.8-2.7-1.1-2.7-.1 0 .9-.5 1.6-.7.2.6.8 2 1 2 .3.1 1.9-.8 1.9-1 0-.1-.3-1-.5-1.7.9-.1 1.6 0 2.2.5 1.7 1.3.4 3.4-1.2 5.3-.2-.5-.4-.9-.6-.9-.3 0-3.2 1.3-3.3 1.7 0 .2.6 1.8 1.1 2.4-.4.5-.7 1-.7 1.4.1 1.9 3.4 0 4.7.9 1.4.9 1.3 1.4-.5 5.1-2.9 6.3-6.2 10.4-6.2 15.6-4.6 4.8-5.9 7.8-6.8 13.7-.9 5.8 1.4 9.5 3.4 8.7 2-.8-2.9-10.7 3.7-19.8.1.5.8 1 1 1.5.5 1.7 3.4 4.1 7.4 5.8-1 3.1-2.7 6-2.7 10.2-.1 5.9 2.4 9.2 4.2 8.2 1.7-.9-3.4-8.7-.2-17.5 3.1 1 6.7 1.5 10.6.9 5.7 10.3-1.2 19.6.7 20.7 1.8 1.1 4.6-2.1 4.8-8 .1-5.4-.5-8.6-3.5-13.2 2.1-.6 4.3-1.5 6.5-2.9.9-.6 1.7-1.1 2.3-1.7 6.9 9.4 1.4 19.5 3.4 20.4 1.9.8 4.3-2.7 3.7-8.6-.6-5.6-1.8-8.7-5.7-13.2 2.1-2.4 3.1-5.2 3.1-8.4 6.5 4.4 8.2 11.6 9.9 11.1 2-.7 1.6-5-2.6-9.1zM14.3 11.8c-.2 2.9-4.6 4-5.8.6-1.3-3.7 3-5.4 5-3.1 0-3.4 5-4.4 6.3-.7 1.2 3.8-3.5 5.9-5.5 3.2z"/><path d="M17 9.3c-.1.4-.8.5-1 0 0-.2 0-.3.1-.4-.6 0-1.2.5-1 1.3.4 1.2 2.4.6 1.9-.7.1-.1 0-.1 0-.2zm-4.4 1.6c-.1.4-.7.5-.9 0-.1-.2 0-.3.1-.4-.6 0-1.1.5-.9 1.2.4 1.1 2.2.5 1.7-.6.1-.1 0-.1 0-.2z"/></svg>