<svg xmlns="http://www.w3.org/2000/svg" viewBox="0 0 573 186" xml:space="preserve">
    <path d="M530.5,152.5l0.3-1.2c2-7.1,8.1-11.8,15.2-11.8c7.9,0,13.2,4.3,14.6,11.9l0.2,1.1H530.5z M546.9,130.4c-15.4,0-26.9,11.7-26.9,27.2c0,15.5,11.7,27.2,27.2,27.2c8.2,0,16-3.2,20.9-8.5l-6.8-7.2c-2.4,2.4-7.1,5.8-14.2,5.8c-8.7,0-15.3-5.5-16.6-13.8l-0.2-1.1h41.7v-2.3C571.2,140.8,561.6,130.4,546.9,130.4"></path>
    <path d="M260.8,152.5l0.3-1.2c2-7.1,8.1-11.8,15.2-11.8c7.9,0,13.2,4.3,14.6,11.9l0.2,1.1H260.8z M277.2,130.4c-15.4,0-26.9,11.7-26.9,27.2c0,15.5,11.7,27.2,27.2,27.2c8.2,0,16-3.2,20.9-8.5l-6.8-7.2c-2.4,2.4-7.1,5.8-14.2,5.8c-8.7,0-15.3-5.5-16.6-13.8l-0.2-1.1h41.7v-2.3C301.5,140.8,291.9,130.4,277.2,130.4"></path>
    <path d="M456.9,107.3c-4.1,0-7.3,3.3-7.3,7.3c0,4.1,3.3,7.4,7.3,7.4c4.1,0,7.4-3.3,7.4-7.4C464.3,110.6,461,107.3,456.9,107.3"></path>
    <rect x="311.5" y="108.4" width="10.1" height="75.4"></rect>
    <rect x="451.9" y="131.2" width="10.1" height="52.6"></rect>
    <polygon points="472.4,131.2 472.4,140 501.3,140 472.4,180.2 472.4,183.8 515.8,183.8 515.8,175 486.8,175 515.8,134.7 515.8,131.2 "></polygon>
    <path d="M431,147.7l0.2,0.2v19.1l-0.2,0.2c-3.2,4.8-9,7.8-15.3,7.8c-9.7,0-16.7-7.4-16.7-17.6c0-10.2,7-17.6,16.7-17.6C422,139.9,427.9,142.9,431,147.7 M388.6,157.5c0,15.5,11.6,27.2,27,27.2c5.4,0,10.3-1.6,14-4.6l1.5-1.2v4.9h10.1v-52.6h-10.1v5.1l-1.5-1.2c-3.8-3.1-8.7-4.7-14-4.7C400.2,130.4,388.6,142,388.6,157.5"></path>
    <path d="M358.8,130.4c-5.9,0-11.2,2.1-14.6,5.7l-1.6,1.8v-29.5h-10.1v75.4h10.1v-33.5l0-0.1c2.2-6.6,7.2-10.2,13.9-10.2c8.7,0,13.4,6.8,13.4,13.1v30.7H380v-31C380,139.2,371.7,130.4,358.8,130.4"></path>
    <path d="M204.6,173.9h-12.8v-55.7h12.8c16.6,0,28.6,11.7,28.6,27.8C233.2,162.2,221.2,173.9,204.6,173.9 M204.6,108.4H181v75.4h23.6c22.6,0,39.6-16.2,39.6-37.7C244.2,124.6,227.2,108.4,204.6,108.4"></path>
    <rect x="377.2" y="15.5" width="10.1" height="75.4"></rect>
    <path d="M200.2,64l13.3-33.2L226.7,64H200.2z M209.3,15.5l-31,75.4h11.5l6.9-17.2h33.6l6.9,17.2h11.6l-31-75.4H209.3z"></path>
    <path d="M284.3,37.5c-5.9,0-11.2,2.1-14.6,5.7l-1.6,1.8V15.5H258v75.4h10.1V57.4l0.1-0.1c2.2-6.6,7.2-10.2,13.9-10.2c8.7,0,13.4,6.8,13.4,13.1v30.7h10.1v-31C305.4,46.3,297.1,37.5,284.3,37.5"></path>
    <path d="M341.3,82.2c-9.8,0-16.8-7.4-16.8-17.6c0-10.2,7.1-17.6,16.8-17.6c9.6,0,16.8,7.6,16.8,17.6C358.2,74.7,350.9,82.2,341.3,82.2 M341.3,37.5c-15.5,0-27.3,11.7-27.3,27.2c0,15.5,11.7,27.2,27.3,27.2c15.5,0,27.3-11.7,27.3-27.2C368.6,49.1,356.9,37.5,341.3,37.5"></path>
    <path d="M438.3,55.1v19.1l-0.2,0.2c-3.2,4.8-9,7.8-15.3,7.8c-9.7,0-16.7-7.4-16.7-17.6c0-10.2,7-17.6,16.7-17.6c6.2,0,12.1,3,15.3,7.8L438.3,55.1z M422.8,37.5c-15.4,0-27,11.7-27,27.2c0,15.5,11.6,27.2,27,27.2c5.4,0,10.3-1.6,14-4.6l1.5-1.2v4.9h10.1V15.5h-10.1v27.9l-1.5-1.2C432.9,39.1,428.1,37.5,422.8,37.5"></path>
    <path d="M71.6,11c2.7,0,4.9-2.2,4.9-4.9c0-2.7-2.2-4.9-5-4.9c-2.7,0-4.9,2.2-4.9,4.9C66.7,8.8,68.9,11,71.6,11"></path>
    <path d="M71.6,11c2.7,0,4.9-2.2,4.9-4.9c0-2.7-2.2-4.9-5-4.9c-2.7,0-4.9,2.2-4.9,4.9C66.7,8.8,68.9,11,71.6,11"></path>
    <path d="M36.1,36.6l9.9,0c0,0-1.6-1.6-7.7-8.1c-3.5-3.7-3.8-6.6,0.6-6.6l1,0l5-7.5c0,0-4.3-0.1-6.1-0.1C27,14.3,24.9,25.9,30.8,31.5C35.3,35.6,36.1,36.6,36.1,36.6"></path>
    <path d="M36.1,36.6l9.9,0c0,0-1.6-1.6-7.7-8.1c-3.5-3.7-3.8-6.6,0.6-6.6l1,0l5-7.5c0,0-4.3-0.1-6.1-0.1C27,14.3,24.9,25.9,30.8,31.5C35.3,35.6,36.1,36.6,36.1,36.6"></path>
    <path d="M104.4,21.6c4.4,0,4.1,2.9,0.6,6.6c-6.1,6.5-7.6,8.1-7.6,8.1l9.9,0c0,0,0.9-0.9,5.3-5.2c5.9-5.6,3.7-17.2-8-17.2c-1.9,0-6.1,0.2-6.1,0.2l5,7.5L104.4,21.6z"></path>
    <path d="M104.4,21.6c4.4,0,4.1,2.9,0.6,6.6c-6.1,6.5-7.6,8.1-7.6,8.1l9.9,0c0,0,0.9-0.9,5.3-5.2c5.9-5.6,3.7-17.2-8-17.2c-1.9,0-6.1,0.2-6.1,0.2l5,7.5L104.4,21.6z"></path>
    <polygon points="67.9,32.9 71.7,36.1 75.5,32.8 75.4,14.1 67.8,14.1 "></polygon>
    <polygon points="67.9,32.9 71.7,36.1 75.5,32.8 75.4,14.1 67.8,14.1 "></polygon>
    <path d="M131.4,113.8c1.9,9,1.3,18-1.8,26.8c-3.9,10.8-9.9,18.1-17.4,20.9c-1.7,0.6-4.8,1.6-8.7,1.7c-2.5,0-5.8-0.9-7.9-1.9c-1.2-0.5-3.7-1.7-3.7-1.7c-6.7-3.7-16.2-11.2-16.1-16.2c0-1.7,3.9-4.5,7.2-4.6c4.6,0,8.3-3.8,8.3-8.4l0-0.4l-1.7-7.3l-0.1-0.2c-1.2-4-4.3-17.6,6.3-23.7l9.2-4.4l-3.3-6.9L92.3,92l-0.3,0.1c-10.5,6-14.2,18.1-10,32.5l1.4,6.2c-0.1,0.2-0.3,0.4-0.6,0.4c-3.1,0-6.6,1.2-9.4,3.2c-0.6,0.4-1.1,0.8-1.6,1.3c-3.1-2.8-7.6-4.4-11.1-4.3c-0.3,0-0.5-0.2-0.6-0.4l1.4-6.2c4.1-14.4,0.3-26.5-10.3-32.4l-9.6-4.5l-3.2,6.9l9.2,4.3c10.6,6,7.7,19.6,6.5,23.7l-1.7,7.5l0,0.4c0,4.6,3.8,8.3,8.4,8.3c3.2,0,7.2,2.7,7.2,4.5c0.1,5-9.3,12.5-16,16.3c-0.6,0.3-1.3,0.7-1.9,1c-2.2,1.3-5.5,2.7-9.4,2.7c-1,0-4.6,0.1-9.1-1.6c-7.5-2.9-13.7-10-17.6-20.8c-3.8-10.3-4.1-20.8-0.9-31.3c0.9-3.2,3.1-7.9,3-8C21,91.3,29.1,81.5,39.5,73.2c0.2-0.1,15.6-12.1,28.4-20.6L50.5,40.8l-10.6,0c0,0-0.9,0-1.4,0h0v0c-10.3,1-19.3,4.9-26.5,11.8C4.7,59.3,0.3,71.8,1.2,83.8c0.4,5.1,1.6,9.8,3.6,14.2c1.2-2.4,2.8-5.5,4.9-9.1c-0.5-2-0.8-3.9-0.9-5.7c-0.7-9.6,2.7-19.9,8.3-25c6-5.7,13.4-8.9,21.9-9.8l21.5-0.1c-12.3,8.4-25.5,18.7-25.7,18.8C26.2,74,19.1,81.7,13.9,90.1c-3.3,5.5-6.5,12.6-6.4,12.7c-5.2,13.6-5.4,27.7-0.6,40.9c6,16.4,15.3,22.8,22.1,25.3c3.3,1.2,6.9,1.8,10.5,1.8c5.5,0,10.3-1.8,10.2-1.8c1.6-0.6,4.6-1.7,6.1-2.6l0,0c1.4-0.8,10.8-6.2,16.1-13.3c5.3,6.9,14.4,12.1,16.1,13.1c0,0,4.1,2.4,7.4,3.4c3.7,1,7.7,1,9,1c3.6,0,7.1-0.7,10.5-1.9c6.8-2.6,16.1-9.1,21.9-25.5c4.2-11.7,4.4-24,0.8-36.1C136,109.2,134,111.5,131.4,113.8"></path>
    <path d="M131.4,113.8c1.9,9,1.3,18-1.8,26.8c-3.9,10.8-9.9,18.1-17.4,20.9c-1.7,0.6-4.8,1.6-8.7,1.7c-2.5,0-5.8-0.9-7.9-1.9c-1.2-0.5-3.7-1.7-3.7-1.7c-6.7-3.7-16.2-11.2-16.1-16.2c0-1.7,3.9-4.5,7.2-4.6c4.6,0,8.3-3.8,8.3-8.4l0-0.4l-1.7-7.3l-0.1-0.2c-1.2-4-4.3-17.6,6.3-23.7l9.2-4.4l-3.3-6.9L92.3,92l-0.3,0.1c-10.5,6-14.2,18.1-10,32.5l1.4,6.2c-0.1,0.2-0.3,0.4-0.6,0.4c-3.1,0-6.6,1.2-9.4,3.2c-0.6,0.4-1.1,0.8-1.6,1.3c-3.1-2.8-7.6-4.4-11.1-4.3c-0.3,0-0.5-0.2-0.6-0.4l1.4-6.2c4.1-14.4,0.3-26.5-10.3-32.4l-9.6-4.5l-3.2,6.9l9.2,4.3c10.6,6,7.7,19.6,6.5,23.7l-1.7,7.5l0,0.4c0,4.6,3.8,8.3,8.4,8.3c3.2,0,7.2,2.7,7.2,4.5c0.1,5-9.3,12.5-16,16.3c-0.6,0.3-1.3,0.7-1.9,1c-2.2,1.3-5.5,2.7-9.4,2.7c-1,0-4.6,0.1-9.1-1.6c-7.5-2.9-13.7-10-17.6-20.8c-3.8-10.3-4.1-20.8-0.9-31.3c0.9-3.2,3.1-7.9,3-8C21,91.3,29.1,81.5,39.5,73.2c0.2-0.1,15.6-12.1,28.4-20.6L50.5,40.8l-10.6,0c0,0-0.9,0-1.4,0h0v0c-10.3,1-19.3,4.9-26.5,11.8C4.7,59.3,0.3,71.8,1.2,83.8c0.4,5.1,1.6,9.8,3.6,14.2c1.2-2.4,2.8-5.5,4.9-9.1c-0.5-2-0.8-3.9-0.9-5.7c-0.7-9.6,2.7-19.9,8.3-25c6-5.7,13.4-8.9,21.9-9.8l21.5-0.1c-12.3,8.4-25.5,18.7-25.7,18.8C26.2,74,19.1,81.7,13.9,90.1c-3.3,5.5-6.5,12.6-6.4,12.7c-5.2,13.6-5.4,27.7-0.6,40.9c6,16.4,15.3,22.8,22.1,25.3c3.3,1.2,6.9,1.8,10.5,1.8c5.5,0,10.3-1.8,10.2-1.8c1.6-0.6,4.6-1.7,6.1-2.6l0,0c1.4-0.8,10.8-6.2,16.1-13.3c5.3,6.9,14.4,12.1,16.1,13.1c0,0,4.1,2.4,7.4,3.4c3.7,1,7.7,1,9,1c3.6,0,7.1-0.7,10.5-1.9c6.8-2.6,16.1-9.1,21.9-25.5c4.2-11.7,4.4-24,0.8-36.1C136,109.2,134,111.5,131.4,113.8"></path>
    <path d="M55.3,38.5l24.3,17.4c0.3,0.2,1.9,1.2,1.9,1.2c11.1,7.6,21.9,15.8,22,15.9c9.2,7.1,16.5,15.5,21.6,24.5c2.1-3,3.3-6.3,3.9-8.4c-5.3-8.1-12.3-15.6-20.8-22.2c-0.1-0.1-9.7-7.4-20.2-14.7c-4.4-2.7-17.4-11.5-17.4-11.5c-6.2-4-15.1-12.2-15.1-12.2c-3.3-3.2-3.7-6.7,0.3-6.7l7.8,0l0-7.6l-7.7,0c-12.5,0.1-14.4,10.4-7.6,17.7C50.9,34.8,55.3,38.5,55.3,38.5"></path>
    <path d="M55.3,38.5l24.3,17.4c0.3,0.2,1.9,1.2,1.9,1.2c11.1,7.6,21.9,15.8,22,15.9c9.2,7.1,16.5,15.5,21.6,24.5c2.1-3,3.3-6.3,3.9-8.4c-5.3-8.1-12.3-15.6-20.8-22.2c-0.1-0.1-9.7-7.4-20.2-14.7c-4.4-2.7-17.4-11.5-17.4-11.5c-6.2-4-15.1-12.2-15.1-12.2c-3.3-3.2-3.7-6.7,0.3-6.7l7.8,0l0-7.6l-7.7,0c-12.5,0.1-14.4,10.4-7.6,17.7C50.9,34.8,55.3,38.5,55.3,38.5"></path>
    <path d="M89.9,171.7c-4.6,3.8-11.7,5.4-17.9,5.5c-6.1-0.1-13-1.6-17.6-5.1c-2.1,0.8-5.2,1.9-8.3,2.6c2.8,3.4,6.7,6,11.7,7.8c5.1,1.8,10.2,2.3,13.5,2.4v0c0.3,0,0.5,0,0.8,0c0.3,0,0.6,0,0.9,0v0c3.3-0.1,8.4-0.7,13.5-2.5c5-1.8,8.9-4.5,11.7-8C94.8,173.6,91.8,172.5,89.9,171.7"></path>
    <path d="M89.9,171.7c-4.6,3.8-11.7,5.4-17.9,5.5c-6.1-0.1-13-1.6-17.6-5.1c-2.1,0.8-5.2,1.9-8.3,2.6c2.8,3.4,6.7,6,11.7,7.8c5.1,1.8,10.2,2.3,13.5,2.4v0c0.3,0,0.5,0,0.8,0c0.3,0,0.6,0,0.9,0v0c3.3-0.1,8.4-0.7,13.5-2.5c5-1.8,8.9-4.5,11.7-8C94.8,173.6,91.8,172.5,89.9,171.7"></path>
    <path d="M130.9,52.1c-7.2-6.6-15.9-10.5-25.9-11.5l-0.9-0.1c-0.5,0-1.4,0-1.4,0l-17.6,0.1c1.8-1.4,3.6-2.8,5.4-4.3c0,0,0.3-0.1,1.1-0.9c0.8-0.7,2.2-2.4,2.2-2.4c0.4-0.4,0.8-0.9,1.3-1.4C102,24.3,100,14,87.5,14l-7.7,0l0,7.6l7.8,0c4.2,0,2.9,3.6,0,7.3c-3.9,3.4-8.1,6.6-12.6,9.7c5.3,3.8,10.7,7.2,14.6,9.6l14.2-0.1c8.5,0.8,15.9,4,22,9.6c5.6,5.1,9.1,15.3,8.5,24.9c-0.2,2.9-0.8,6.4-2.1,9.9c-1.4,3.7-3.9,8.7-8.3,12.2c0,0-0.1,0.1-0.1,0.1c-1.1,1-2.2,1.9-3.5,2.8c-20.1,14.1-21.6,32.1-22.4,41.7c-0.1,0.8-0.1,1.6-0.2,2.3c0,0.4-0.1,0.9-0.1,1.3c-0.1,1.2-0.2,2.7-0.5,4.2c1.9,1,4.6,1.9,7.5,1.6c0.3-2,0.5-3.7,0.6-5.2c0-0.4,0.1-0.9,0.1-1.2c0.1-0.8,0.1-1.6,0.2-2.5c0.8-9.5,2.1-24,19-36c0.1-0.1,0.3-0.3,0.4-0.4c9.3-6.7,12.9-14.8,12.9-14.9c0.1-0.2,0.2-0.3,0.3-0.4c2.3-4.7,3.6-9.9,4-15.3C142.7,71.2,138.2,58.7,130.9,52.1"></path>
    <path d="M130.9,52.1c-7.2-6.6-15.9-10.5-25.9-11.5l-0.9-0.1c-0.5,0-1.4,0-1.4,0l-17.6,0.1c1.8-1.4,3.6-2.8,5.4-4.3c0,0,0.3-0.1,1.1-0.9c0.8-0.7,2.2-2.4,2.2-2.4c0.4-0.4,0.8-0.9,1.3-1.4C102,24.3,100,14,87.5,14l-7.7,0l0,7.6l7.8,0c4.2,0,2.9,3.6,0,7.3c-3.9,3.4-8.1,6.6-12.6,9.7c5.3,3.8,10.7,7.2,14.6,9.6l14.2-0.1c8.5,0.8,15.9,4,22,9.6c5.6,5.1,9.1,15.3,8.5,24.9c-0.2,2.9-0.8,6.4-2.1,9.9c-1.4,3.7-3.9,8.7-8.3,12.2c0,0-0.1,0.1-0.1,0.1c-1.1,1-2.2,1.9-3.5,2.8c-20.1,14.1-21.6,32.1-22.4,41.7c-0.1,0.8-0.1,1.6-0.2,2.3c0,0.4-0.1,0.9-0.1,1.3c-0.1,1.2-0.2,2.7-0.5,4.2c1.9,1,4.6,1.9,7.5,1.6c0.3-2,0.5-3.7,0.6-5.2c0-0.4,0.1-0.9,0.1-1.2c0.1-0.8,0.1-1.6,0.2-2.5c0.8-9.5,2.1-24,19-36c0.1-0.1,0.3-0.3,0.4-0.4c9.3-6.7,12.9-14.8,12.9-14.9c0.1-0.2,0.2-0.3,0.3-0.4c2.3-4.7,3.6-9.9,4-15.3C142.7,71.2,138.2,58.7,130.9,52.1"></path>
    <path d="M46.9,157.8c-0.3-1.6-0.4-3.2-0.6-4.4c0-0.5-0.1-0.9-0.1-1.3c-0.1-0.7-0.2-1.5-0.2-2.3c-0.9-9.6-2.6-27.6-22.8-41.5c-1.4-0.9-2.6-1.9-3.7-2.9c-1.2,3-2,5.8-2.4,7.9c0.6,0.4,1.1,0.9,1.7,1.3c17.3,11.9,18.6,26.4,19.5,35.9c0.1,0.9,0.2,1.7,0.2,2.5c0,0.4,0.1,0.8,0.1,1.2c0.1,1.4,0.3,3.2,0.7,5.1C42.3,159.6,44.9,158.8,46.9,157.8"></path>
    <path d="M46.9,157.8c-0.3-1.6-0.4-3.2-0.6-4.4c0-0.5-0.1-0.9-0.1-1.3c-0.1-0.7-0.2-1.5-0.2-2.3c-0.9-9.6-2.6-27.6-22.8-41.5c-1.4-0.9-2.6-1.9-3.7-2.9c-1.2,3-2,5.8-2.4,7.9c0.6,0.4,1.1,0.9,1.7,1.3c17.3,11.9,18.6,26.4,19.5,35.9c0.1,0.9,0.2,1.7,0.2,2.5c0,0.4,0.1,0.8,0.1,1.2c0.1,1.4,0.3,3.2,0.7,5.1C42.3,159.6,44.9,158.8,46.9,157.8"></path>
  </svg>