<svg id="Layer_1" xmlns="http://www.w3.org/2000/svg" width="165" height="82" viewBox="0 0 165 82"><style>.st0{fill:#fbe200}.st1{fill:#632e82}</style><path class="st0" d="M161.3 0H3.7C1.7 0 0 1.7 0 3.7v74.6c0 2 1.7 3.7 3.7 3.7h157.6c2 0 3.7-1.7 3.7-3.7V3.7c0-2-1.7-3.7-3.7-3.7z"/><path class="st1" d="M49.7 19.5c1.2 0 2.8.2 3.7.3v44c-.8.1-2.1.3-3.1.3-2.4 0-3.1-.5-4.2-2-3-4-15.1-20.5-16.4-22.4-2.6-3.6-4.4-6.1-5.7-8.3.2 3.4.3 7.2.3 11.2v21c-.5.2-2.2.3-3.8.3-1.3 0-2.9-.2-3.7-.3V26.1c0-1.3-.2-2.2-.7-2.9-.5-.6-1.1-1.1-2.1-1.5v-1.9c1.7-.2 3.8-.3 5.3-.3 3.8 0 5.3.6 7 2.9C29 26.2 39 39.9 40.6 42.1c2.5 3.4 4.3 6.2 5.8 8.7-.3-4-.5-7.4-.5-11.8V19.8c.6-.2 2.3-.3 3.8-.3zM165 3.7v74.6c0 2-1.7 3.7-3.7 3.7H82.5V50.9c-2 .9-4.5 1.4-7.4 1.4-5.3 0-9.1-1.6-11.5-4.3-2.1-2.4-3.1-5.6-3.1-9.6V24.9c0-1.2-.2-1.9-.7-2.4-.3-.3-.8-.7-1.7-1v-1.7c1.7-.2 3.6-.3 5.1-.3 1.4 0 2.4.1 3.1.4.9.4 1.3 1 1.3 1.9v15.5c0 3.7.6 5.5 1.8 7 1.3 1.6 3.4 2.3 5.6 2.3 2.3 0 4.3-.7 5.6-2.3.8-1 1.4-2.2 1.6-4.1C84 47.1 89.8 52.3 98 52.3c10 0 16.2-7.6 16.2-16.5 0-9-6.2-16.5-16.2-16.5-8 0-13.6 4.9-15.5 11.5v-3.3c0-1.8-.3-3-1-3.8-.7-.8-1.9-1.4-3.9-2.1v-1.8c1.6-.2 3.5-.3 4.9-.3V0h78.8c2 0 3.7 1.7 3.7 3.7zm-16.2 16.1c-.7-.1-2-.3-3.1-.3-1.4 0-2.7.2-3.1.3v11.6c0 4.6.1 8.3.3 11.3-1.9-2.9-4-5.7-5.8-7.9-2.4-3-7.7-9.7-10.3-12.8-.8-1-1.4-1.6-2.4-2-.9-.4-2-.5-3.6-.5-1.2 0-3 .1-4 .3v1.8c.8.3 1.3.7 1.6 1 .5.5.7 1.1.7 2.4v26.6c.7.1 2 .3 3.1.3 1.3 0 2.7-.2 3.1-.3V40.3c0-4.6-.1-8.3-.3-11.3 1.9 2.9 4 5.7 5.8 8 2 2.6 8.3 10.4 10.8 13.5.9 1.1 1.7 1.7 4 1.7 1.1 0 2.3-.1 3.1-.2V19.8zm-41.8 16c0-6.8-3.5-11.4-9-11.4s-9 4.6-9 11.4 3.5 11.4 9 11.4 9-4.6 9-11.4z"/></svg>